<svg width="16" height="16" version="1.1" viewBox="0 0 4.2333 4.2333" xmlns="http://www.w3.org/2000/svg">
    <title>refresh channels</title>
    <path id="nav-icon--1"
        d="m2.3989 2.54c-0.3896 0-0.70554 0.31594-0.70554 0.70553 0 0.061663 0.011571 0.11938 0.026387 0.17639-0.050658-0.021449-0.10908-0.035277-0.1675-0.035277-0.23381 0-0.42333 0.18951-0.42333 0.42332s0.18951 0.42332 0.42333 0.42332h2.2577c0.23381-2e-7 0.42333-0.18951 0.42333-0.42333s-0.18951-0.42332-0.42333-0.42332c0-0.31171-0.25273-0.56442-0.56442-0.56442-0.089039 0-0.17201 0.024976-0.24694 0.061807-0.12333-0.20545-0.34275-0.34402-0.59972-0.34402zm-0.42335-1.6933c-0.31482 0-0.59743 0.12827-0.80265 0.33513 2.823e-4 0.023283 0.00409 0.047977 0.017639 0.070553 0.028222 0.04713 0.052069 0.095529 0.08819 0.13236 0.026811-0.084382 0.11585-0.15 0.22055-0.15 0.088191 0 0.16496 0.041486 0.20291 0.10583 0.075354-0.07874 0.14689-0.16919 0.29986-0.17639 0.25513-0.011995 0.28052 0.18528 0.53807 0.23819 0.16693 0.03429 0.31594 0.011007 0.40569-0.00875-0.19798-0.32808-0.55823-0.54681-0.97012-0.54681zm-0.13222 0.12347c0.00776-0.003387 0.018344 0.001131 0.026387 0 0.02413-0.003387 0.041909 0.003387 0.052916 0.017639 0.014675 0.01905 0.00423 0.03951-0.026387 0.052916-0.030903 0.013406-0.064628 0.010301-0.079444-0.00875-0.014816-0.01905-0.00452-0.0484 0.026387-0.061807zm-0.17639 0.044167c0.010018-0.00113 0.025682-5.653e-4 0.035277 0 0.028786 0.00141 0.047977 0.017356 0.061807 0.035277 0.024412 0.031891 0.0072 0.074644-0.044167 0.097081-0.051505 0.022295-0.1167 0.014252-0.14111-0.017638-0.024412-0.031891 0.0017-0.074644 0.052916-0.097081 0.012841-0.0055 0.021872-0.015663 0.035277-0.017639zm0.1675 0.096942c0.017074-0.00226 0.036406-0.00141 0.044167 0.00875 0.010442 0.013405 0.00423 0.034572-0.017639 0.044167-0.021872 0.0096-0.051363 0.00466-0.061807-0.00875-0.010442-0.013405-0.00423-0.025823 0.017639-0.035277 0.0055-0.00226 0.011853-0.00804 0.017639-0.00875zm0.28222 0.25583c-0.14676-0.0072-0.21731 0.11246-0.2293 0.22055-0.011994 0.10809 0.27798 0.051363 0.18528 0.21167-0.00974 0.016651-0.026811 0.025117-0.035277 0.035277-0.011148 0.080857-0.081417 0.14111-0.17639 0.14111-0.044026 0-0.082831-0.012841-0.11472-0.035277-0.00423 0.019614-0.01524 0.045719-0.017639 0.079444-0.00875 0.11895 0.079444 0.21604 0.097081 0.29111 0.019332-0.036406 0.038664-0.078313 0.052916-0.12347 0.013546 0.056159 0.027516 0.10005 0.044167 0.14111 0.14153-0.076622 0.30268-0.12347 0.47624-0.12347 0.23735 0 0.43871 0.099342 0.60858 0.23819 0.052351-0.11373 0.085231-0.23128 0.097081-0.36166-0.028222-0.081278-0.10696-0.3103-0.19402-0.36166-0.00607-0.00339-0.011712-0.00621-0.017639-0.00875 0.00691 0.015945 0.00677 0.032455 0 0.044167-0.010442 0.018485-0.040075 0.020178-0.061807 0-0.01397-0.013123-0.015945-0.028222-0.017639-0.044167-0.057994 0.019614-0.10018 0.081278-0.11472 0.15-0.02159 0.10315 0.12347 0.27333 0.12347 0.27333-0.099481-2.822e-4 -0.2468 0.0096-0.29986-0.13236-0.045155-0.12079 0.040357-0.29859-0.052916-0.38805 0 0-0.20602-0.23974-0.35277-0.24694zm0.64388 0.4586c0.00452-8.479e-4 0.0127-2.821e-4 0.017639 0 0.019896 0.00113 0.041345 0.0072 0.061807 0.026387 0.040921 0.038382 0.05489 0.097363 0.035277 0.13236-0.019614 0.034995-0.064911 0.029632-0.10583-0.00875s-0.06378-0.097363-0.044167-0.13236c0.00734-0.013123 0.021731-0.015098 0.035277-0.017639zm-1.905 0.00875c-0.005503 0.045296-0.008749 0.094259-0.008749 0.14111 0 0.19205 0.056303 0.37097 0.14111 0.52916-0.021449-0.050659-0.024835-0.11317-0.017639-0.15875 0.014393-0.091156 0.19642-0.045014 0.19402-0.11472 0.015945 0.01651 0.031891 0.031891 0.052916 0.044167 0.10879 0.063076 0.24412 0.033866 0.29986-0.061807 0.055738-0.095673 0.011853-0.21914-0.097081-0.28222-0.10894-0.063076-0.24412-0.042756-0.29986 0.052916-0.032455 0.055599-0.028222 0.12657 0 0.18528-0.058986-0.052492-0.15875-0.10583-0.15875-0.10583zm0.13222 0.67028c0.10174 0.19007 0.25287 0.34445 0.44096 0.44985 0.00861-0.029492 0.015381-0.059828 0.026387-0.08819-0.070553-0.015804-0.14873-0.047271-0.22055-0.070554 0.09666-0.042756 0.20842-0.076478 0.27347-0.15875-0.11345-0.022295-0.18006-0.098915-0.25583-0.15875-0.049529 0.059828-0.088191 0.11599-0.15 0.11472-0.056586-0.0011307-0.093273-0.037535-0.11472-0.08819zm0.50277-0.15875c-0.020602 8.48e-4 -0.048542 0.00226-0.070553 0.00875-0.072809 0.021872-0.11966 0.069145-0.15875 0.11472 0.10498 0.023848 0.21223 0.075353 0.32638 0.044167-0.020037-0.055172-0.034712-0.11246-0.044167-0.16763-0.017215-0.00254-0.034572-5.653e-4 -0.052915-2e-7zm0.21167 0.052916c0.00762 0.012559 0.018203 0.022718 0.026387 0.035277 0.010865-0.00818 0.01651-0.01651 0.026387-0.026387-0.01651 2.822e-4 -0.033443-0.00282-0.052916-0.00875zm0.27333-2.3989c-1.0877 0-1.9755 0.88788-1.9755 1.9755 0 0.66207 0.32625 1.255 0.829 1.614 0.065898-0.1857 0.21279-0.32991 0.39694-0.41458-0.3999-0.24906-0.66154-0.69188-0.66154-1.1994 0-0.7827 0.62836-1.4111 1.4111-1.4111 0.78271 0 1.4111 0.62836 1.4111 1.4111 0 0.18302-0.043038 0.35136-0.10583 0.51152 0.20433 0.00833 0.38594 0.086782 0.52916 0.21167 0.089183-0.22465 0.14111-0.46749 0.14111-0.72319 0-1.0877-0.88788-1.9755-1.9755-1.9755z"
        style="stroke-width: 0.14111;" />
</svg>